<svg xmlns="http://www.w3.org/2000/svg" width="111" height="34" viewBox="0 0 111 34" fill="none">
  <g clip-path="url(#clip0_6218_7331)">
    <path d="M68.8471 26.4768C62.4044 31.2256 53.0661 33.7592 45.026 33.7592C33.7525 33.7592 23.6035 29.5896 15.9253 22.6546C15.3221 22.1093 15.8626 21.3661 16.5865 21.7908C24.8727 26.6119 35.1183 29.5123 45.7017 29.5123C52.8393 29.5123 60.6912 28.0356 67.9108 24.9711C69.0015 24.5078 69.9136 25.6853 68.8471 26.4768Z" fill="white"/>
    <path d="M71.5257 23.4124C70.7052 22.3603 66.082 22.9153 64.0068 23.1614C63.3746 23.2387 63.2781 22.6885 63.8475 22.2928C67.5297 19.7012 73.5719 20.4492 74.2765 21.3179C74.9811 22.1914 74.0931 28.248 70.6329 31.1388C70.102 31.5828 69.5953 31.3463 69.8317 30.7575C70.6087 28.8175 72.3509 24.4693 71.5257 23.4124Z" fill="white"/>
    <path d="M64.1511 3.9975V1.47834C64.1511 1.09709 64.4407 0.841309 64.7882 0.841309H76.0665C76.4284 0.841309 76.718 1.10191 76.718 1.47834V3.63555C76.7132 3.9975 76.4091 4.47045 75.8686 5.21848L70.0244 13.5626C72.1961 13.5095 74.4884 13.8329 76.4574 14.9428C76.9014 15.1938 77.022 15.5606 77.0558 15.9225V18.6106C77.0558 18.9774 76.6504 19.4069 76.2258 19.1849C72.7559 17.3655 68.147 17.1676 64.3104 19.2042C63.9195 19.4165 63.5093 18.9918 63.5093 18.6251V16.0721C63.5093 15.6619 63.5141 14.9621 63.9243 14.3396L70.6952 4.62971H64.8026C64.4407 4.62971 64.1511 4.37393 64.1511 3.9975Z" fill="white"/>
    <path d="M23.0098 19.7158H19.5785C19.2503 19.6917 18.9897 19.4456 18.9656 19.1319V1.52187C18.9656 1.16958 19.26 0.889668 19.6267 0.889668H22.8264C23.1594 0.904137 23.4248 1.15992 23.4489 1.47844V3.78044H23.5117C24.3466 1.55565 25.915 0.518066 28.0288 0.518066C30.1763 0.518066 31.518 1.55565 32.4832 3.78044C33.3132 1.55565 35.2002 0.518066 37.2223 0.518066C38.6604 0.518066 40.2337 1.11166 41.1941 2.44363C42.2799 3.92521 42.0579 6.0776 42.0579 7.96457L42.0531 19.0788C42.0531 19.4311 41.7587 19.7158 41.3919 19.7158H37.9655C37.6228 19.6917 37.3478 19.4166 37.3478 19.0788V9.74535C37.3478 9.00215 37.4153 7.14897 37.2512 6.44438C36.9955 5.26201 36.2281 4.92902 35.234 4.92902C34.4039 4.92902 33.5352 5.48401 33.1829 6.37199C32.8306 7.25997 32.8644 8.74637 32.8644 9.74535V19.0788C32.8644 19.4311 32.57 19.7158 32.2033 19.7158H28.7768C28.4293 19.6917 28.1591 19.4166 28.1591 19.0788L28.1543 9.74535C28.1543 7.78118 28.4776 4.89041 26.0405 4.89041C23.5744 4.89041 23.6709 7.70878 23.6709 9.74535V19.0788C23.6709 19.4311 23.3765 19.7158 23.0098 19.7158Z" fill="white"/>
    <path d="M86.4276 0.518066C91.5191 0.518066 94.2747 4.89041 94.2747 10.4499C94.2747 15.8213 91.2295 20.0826 86.4276 20.0826C81.4279 20.0826 78.7061 15.7103 78.7061 10.2617C78.7061 4.77941 81.4617 0.518066 86.4276 0.518066ZM86.4566 4.11343C83.9278 4.11343 83.7685 7.55918 83.7685 9.70675C83.7685 11.8591 83.7347 16.4535 86.4276 16.4535C89.0868 16.4535 89.2122 12.7471 89.2122 10.4886C89.2122 9.00215 89.1495 7.22619 88.7007 5.817C88.3146 4.5912 87.5473 4.11343 86.4566 4.11343Z" fill="white"/>
    <path d="M100.877 19.7158H97.4604C97.1178 19.6917 96.8427 19.4166 96.8427 19.0788L96.8379 1.46396C96.8668 1.14062 97.1516 0.889668 97.499 0.889668H100.679C100.979 0.904137 101.225 1.10684 101.292 1.38192V4.07482H101.355C102.315 1.66665 103.662 0.518066 106.031 0.518066C107.571 0.518066 109.072 1.07306 110.037 2.59324C110.935 4.00243 110.935 6.37199 110.935 8.07556V19.1609C110.896 19.4697 110.611 19.7158 110.273 19.7158H106.833C106.519 19.6917 106.258 19.4601 106.224 19.1609V9.59575C106.224 7.67018 106.446 4.8518 104.077 4.8518C103.242 4.8518 102.475 5.41162 102.093 6.26099C101.611 7.33719 101.548 8.40856 101.548 9.59575V19.0788C101.543 19.4311 101.244 19.7158 100.877 19.7158Z" fill="white"/>
    <path d="M55.1605 11.3041V10.5609C52.6799 10.5609 50.0594 11.0918 50.0594 14.0163C50.0594 15.4979 50.8268 16.5017 52.1442 16.5017C53.1094 16.5017 53.9733 15.9081 54.5186 14.9429C55.1943 13.7557 55.1605 12.6409 55.1605 11.3041ZM58.6207 19.6675C58.3939 19.8702 58.0657 19.8847 57.81 19.7496C56.671 18.8037 56.4683 18.3645 55.841 17.4621C53.9588 19.3828 52.6268 19.9571 50.1849 19.9571C47.299 19.9571 45.05 18.1763 45.05 14.6099C45.05 11.8253 46.5606 9.9287 48.7081 9.00212C50.571 8.18169 53.1722 8.03692 55.1605 7.8101V7.36611C55.1605 6.55051 55.2232 5.58531 54.7455 4.88072C54.3256 4.24852 53.5245 3.98791 52.8199 3.98791C51.512 3.98791 50.3442 4.65873 50.0594 6.04861C50.0015 6.35748 49.7747 6.66151 49.4658 6.67599L46.1359 6.31886C45.856 6.25613 45.5471 6.02931 45.6243 5.5998C46.3917 1.56527 50.0353 0.349121 53.2977 0.349121C54.9674 0.349121 57.1488 0.793112 58.4663 2.05752C60.1361 3.61631 59.9768 5.69631 59.9768 7.9597V13.3069C59.9768 14.9139 60.6428 15.6185 61.2702 16.4872C61.4922 16.7961 61.5404 17.1677 61.2605 17.3993C60.5608 17.9833 59.3157 19.0691 58.6304 19.6772L58.6207 19.6675Z" fill="white"/>
    <path d="M10.1776 11.3041V10.5609C7.69702 10.5609 5.07651 11.0918 5.07651 14.0163C5.07651 15.4979 5.84384 16.5017 7.16134 16.5017C8.12653 16.5017 8.99038 15.9081 9.53572 14.9429C10.2114 13.7557 10.1776 12.6409 10.1776 11.3041ZM13.6378 19.6675C13.411 19.8702 13.0828 19.8847 12.827 19.7496C11.6881 18.8037 11.4854 18.3645 10.858 17.4621C8.97591 19.3828 7.64394 19.9571 5.20199 19.9571C2.31604 19.9571 0.0671387 18.1763 0.0671387 14.6099C0.0671387 11.8253 1.57767 9.9287 3.72523 9.00212C5.58806 8.18169 8.18927 8.03692 10.1776 7.8101V7.36611C10.1776 6.55051 10.2403 5.58531 9.76254 4.88072C9.34268 4.24852 8.54157 3.98791 7.83697 3.98791C6.52913 3.98791 5.36124 4.65873 5.07651 6.04861C5.0186 6.35748 4.79178 6.66151 4.48292 6.67599L1.15299 6.31886C0.873078 6.25613 0.564214 6.02931 0.64143 5.5998C1.40876 1.56527 5.05238 0.349121 8.31475 0.349121C9.98454 0.349121 12.1659 0.793112 13.4834 2.05752C15.1532 3.61631 14.9939 5.69631 14.9939 7.9597V13.3069C14.9939 14.9139 15.6599 15.6185 16.2873 16.4872C16.5093 16.7961 16.5575 17.1677 16.2776 17.3993C15.5779 17.9833 14.3328 19.0691 13.6475 19.6772L13.6378 19.6675Z" fill="white"/>
  </g>
  <defs>
    <clipPath id="clip0_6218_7331">
      <rect width="111" height="33.5025" fill="white" transform="translate(0 0.303711)"/>
    </clipPath>
  </defs>
</svg>