<svg width="54" height="13" viewBox="0 0 54 13" fill="none" xmlns="http://www.w3.org/2000/svg">
<g clip-path="url(#clip0_750_2967)">
<mask id="mask0_750_2967" style="mask-type:luminance" maskUnits="userSpaceOnUse" x="0" y="0" width="54" height="13">
<path d="M53.3624 0H0.398682V13H53.3624V0Z" fill="white"/>
</mask>
<g mask="url(#mask0_750_2967)">
<path fill-rule="evenodd" clip-rule="evenodd" d="M51.9655 11.4061C50.746 12.4986 49.3925 12.8326 47.8293 12.8326C46.1606 12.8326 44.9269 12.356 43.9187 11.5104C42.4574 10.2595 42.435 8.85042 42.435 6.4548C42.435 4.05918 42.4574 2.64827 43.9187 1.39916C44.935 0.55191 46.1545 0.0769653 47.8293 0.0769653C51.2457 0.0769653 52.9534 1.98023 53.3453 4.094H50.4596C50.1302 2.89532 49.2865 2.26206 47.8169 2.26206C47.1233 2.24993 46.4569 2.49394 45.9878 2.93185C45.4533 3.45377 45.2886 4.05918 45.2886 6.4548C45.2886 8.85042 45.4574 9.46971 45.9919 9.99166C46.4628 10.425 47.1297 10.6629 47.821 10.644C48.7053 10.644 49.4044 10.3796 49.8535 9.94811C50.3126 9.48166 50.548 8.88366 50.512 8.27452V7.81003H47.8233V5.74847H53.3619V7.58041C53.3619 9.39496 53.0326 10.4527 51.9614 11.4078L51.9655 11.4061ZM23.5301 12.7247H17.396V0.18135H23.2902C26.152 0.18135 27.8187 1.55573 27.8187 3.70429C27.8281 4.78962 27.1296 5.78884 26.0077 6.29474C26.8918 6.64267 28.0239 7.43949 28.0239 9.11311C28.0239 11.4565 26.152 12.7247 23.5382 12.7247H23.5301ZM23.0538 2.36644H20.255V5.25612H23.0538C24.2733 5.25612 24.9481 4.67333 24.9481 3.81041C24.9481 2.94751 24.2692 2.36644 23.0538 2.36644ZM20.255 7.45687H23.2407C24.5457 7.45687 25.1554 8.13534 25.1554 8.98952C25.1554 9.84379 24.5375 10.5396 23.2407 10.5396H20.255V7.45687ZM37.9424 12.7247L35.0806 7.73002H33.0237V12.7247H30.162V0.18135H35.9058C38.8895 0.18135 40.6598 1.92108 40.6598 4.02092C40.7093 5.50257 39.6246 6.83873 37.9851 7.31595L41.2574 12.7247H37.9424ZM33.0224 2.36644H35.7236V2.35948C36.9777 2.35948 37.8029 3.04667 37.8029 4.01568C37.8029 4.98474 36.9777 5.67193 35.7236 5.67193H33.0224V2.36644ZM3.66506 3.36684C3.48017 3.52804 3.37929 3.74636 3.38533 3.97219C3.38783 4.31673 3.63288 4.62598 4.00595 4.75538C4.37902 4.88475 4.80645 4.80877 5.08844 4.5629C5.37044 4.31701 5.45131 3.94981 5.2933 3.63294C5.13528 3.31605 4.76953 3.11204 4.36702 3.11626C4.10312 3.11526 3.84994 3.20564 3.66506 3.36684Z" fill="#1B2944"/>
<path d="M11.4997 3.97735C11.5079 4.3178 11.3512 4.64598 11.0667 4.88397C10.7821 5.12191 10.3951 5.24844 9.99772 5.23347C9.19578 5.2081 8.56091 4.64425 8.56091 3.95738C8.56091 3.27046 9.19578 2.70664 9.99772 2.68129C10.4018 2.67036 10.793 2.80381 11.0776 3.04967C11.3621 3.29552 11.5143 3.6316 11.4977 3.97735" fill="#22BCE7"/>
<path fill-rule="evenodd" clip-rule="evenodd" d="M7.18025 7.47053C6.86132 7.47517 6.5544 7.36648 6.33255 7.17034C6.11071 6.97416 5.99372 6.70805 6.00952 6.43537C6.0162 6.02193 6.31349 5.65273 6.76253 5.50024C7.21157 5.34774 7.72371 5.44209 8.05972 5.73916C8.39568 6.03627 8.48926 6.47748 8.29663 6.85665C8.104 7.23585 7.66323 7.4782 7.18025 7.47053ZM1.55837 7.12307C1.34818 7.12492 1.14591 7.05453 0.996901 6.92764C0.847886 6.80071 0.764596 6.62796 0.765697 6.44805C0.765697 6.07235 1.1215 5.7678 1.5604 5.7678C1.9993 5.7678 2.35511 6.07235 2.35511 6.44805C2.35788 6.62947 2.27477 6.80414 2.12468 6.93228C1.9746 7.06039 1.77033 7.1311 1.55837 7.12827V7.12307ZM3.66052 8.34642C3.47673 8.5103 3.37828 8.73097 3.38762 8.95799L3.38153 8.951C3.38486 9.41364 3.82275 9.78771 4.36321 9.78958C4.91213 9.78958 5.3571 9.40868 5.3571 8.93889C5.3571 8.46902 4.91213 8.08811 4.36321 8.08811C4.09782 8.08941 3.84432 8.18254 3.66052 8.34642Z" fill="#1B2944"/>
<path fill-rule="evenodd" clip-rule="evenodd" d="M6.08096 2.36397C6.3579 2.60826 6.74072 2.74339 7.13831 2.73723V2.73549C7.53411 2.74341 7.91725 2.61579 8.20273 2.38095C8.48812 2.1461 8.65222 1.82346 8.65867 1.48462C8.66882 0.776564 8.00816 0.194756 7.181 0.183311C6.78488 0.178193 6.40284 0.309072 6.12026 0.54672C5.83766 0.784368 5.67798 1.10899 5.67697 1.44809C5.65777 1.78808 5.80403 2.11968 6.08096 2.36397ZM11.0794 9.85958C11.3587 9.61745 11.5105 9.28823 11.4993 8.94803H11.5034C11.5166 8.60792 11.3645 8.27829 11.0833 8.03763C10.8021 7.79697 10.4171 7.66678 10.0197 7.67804C9.47399 7.66079 8.96082 7.90014 8.68196 8.3021C8.40309 8.70404 8.40309 9.20421 8.68196 9.60616C8.96082 10.0081 9.47399 10.2475 10.0197 10.2302C10.4172 10.2356 10.8 10.1017 11.0794 9.85958ZM12.8456 7.73024C12.2416 7.73304 11.6952 7.42391 11.4618 6.94717C11.2281 6.47046 11.3533 5.9202 11.779 5.55345C12.2045 5.18665 12.8465 5.07568 13.405 5.27237C13.9636 5.46907 14.3285 5.93458 14.3293 6.45151C14.3315 7.15513 13.6676 7.72737 12.8456 7.73024ZM8.27889 10.5223C7.99563 10.2792 7.6055 10.1497 7.20472 10.1658C6.8044 10.1483 6.41404 10.2762 6.1296 10.518C5.84521 10.7598 5.69313 11.093 5.71086 11.4358C5.69737 11.778 5.84894 12.1097 6.12997 12.3533C6.41105 12.5968 6.79676 12.7306 7.19661 12.7232C7.59637 12.7319 7.98278 12.5998 8.26559 12.3578C8.54833 12.1157 8.70267 11.785 8.69252 11.4428C8.71242 11.0998 8.56227 10.7655 8.27889 10.5223Z" fill="#22BCE7"/>
</g>
</g>
<defs>
<clipPath id="clip0_750_2967">
<rect width="54" height="13" fill="white"/>
</clipPath>
</defs>
</svg>
