<svg width="115" height="32" viewBox="0 0 115 32" fill="none" xmlns="http://www.w3.org/2000/svg">
<g clip-path="url(#clip0_772_8752)">
<path d="M24.207 2.33721V5.15491C21.9191 3.40569 19.0611 2.36678 15.9608 2.36678C8.44543 2.36678 2.35442 8.47141 2.35442 16.0001C2.35442 23.5288 8.44543 29.6334 15.9608 29.6334C19.0611 29.6334 21.9191 28.5945 24.207 26.8453V29.663C21.8015 31.1251 18.9791 31.9668 15.9608 31.9668C7.165 31.9668 0.0332031 24.819 0.0332031 16.0001C0.0332031 7.18119 7.165 0.0334473 15.9608 0.0334473C18.9791 0.0334473 21.8015 0.875134 24.207 2.33721Z" fill="#090E15"/>
<path fill-rule="evenodd" clip-rule="evenodd" d="M15.9501 3.10021C8.88096 3.10021 3.15028 8.86081 3.15028 15.9669C3.15028 23.0729 8.88096 28.8335 15.9501 28.8335C23.0193 28.8335 28.75 23.0729 28.75 15.9669C28.75 8.86081 23.0193 3.10021 15.9501 3.10021ZM2.68604 15.9669C2.68604 8.60308 8.62457 2.63354 15.9501 2.63354C23.2757 2.63354 29.2142 8.60308 29.2142 15.9669C29.2142 23.3307 23.2757 29.3002 15.9501 29.3002C8.62457 29.3002 2.68604 23.3307 2.68604 15.9669Z" fill="#090E15"/>
<path fill-rule="evenodd" clip-rule="evenodd" d="M8.62194 17.0001C7.11364 17.0001 5.90281 18.1856 5.90281 19.6334C5.90281 21.0813 7.11364 22.2668 8.62194 22.2668C10.1302 22.2668 11.3411 21.0813 11.3411 19.6334C11.3411 18.1856 10.1302 17.0001 8.62194 17.0001ZM5.50488 19.6334C5.50488 17.9517 6.907 16.6001 8.62194 16.6001C10.3369 16.6001 11.739 17.9517 11.739 19.6334C11.739 21.3152 10.3369 22.6668 8.62194 22.6668C6.907 22.6668 5.50488 21.3152 5.50488 19.6334Z" fill="#090E15"/>
<path d="M14.7565 11.8002C16.3498 11.8002 17.6415 10.5317 17.6415 8.96688C17.6415 7.40207 16.3498 6.13354 14.7565 6.13354C13.1632 6.13354 11.8716 7.40207 11.8716 8.96688C11.8716 10.5317 13.1632 11.8002 14.7565 11.8002Z" fill="#090E15"/>
<path fill-rule="evenodd" clip-rule="evenodd" d="M14.7563 6.33335C13.2685 6.33335 12.0703 7.51669 12.0703 8.96668C12.0703 10.4167 13.2685 11.6 14.7563 11.6C16.2441 11.6 17.4422 10.4167 17.4422 8.96668C17.4422 7.51669 16.2441 6.33335 14.7563 6.33335ZM11.6724 8.96668C11.6724 7.28706 13.0575 5.93335 14.7563 5.93335C16.4551 5.93335 17.8402 7.28706 17.8402 8.96668C17.8402 10.6463 16.4551 12 14.7563 12C13.0575 12 11.6724 10.6463 11.6724 8.96668Z" fill="#090E15"/>
<path d="M21.1896 22.4667C22.7829 22.4667 24.0746 21.1982 24.0746 19.6334C24.0746 18.0686 22.7829 16.8 21.1896 16.8C19.5963 16.8 18.3047 18.0686 18.3047 19.6334C18.3047 21.1982 19.5963 22.4667 21.1896 22.4667Z" fill="#090E15"/>
<path fill-rule="evenodd" clip-rule="evenodd" d="M21.1894 17.0001C19.7016 17.0001 18.5034 18.1834 18.5034 19.6334C18.5034 21.0834 19.7016 22.2668 21.1894 22.2668C22.6772 22.2668 23.8753 21.0834 23.8753 19.6334C23.8753 18.1834 22.6772 17.0001 21.1894 17.0001ZM18.1055 19.6334C18.1055 17.9538 19.4906 16.6001 21.1894 16.6001C22.8882 16.6001 24.2733 17.9538 24.2733 19.6334C24.2733 21.3131 22.8882 22.6668 21.1894 22.6668C19.4906 22.6668 18.1055 21.3131 18.1055 19.6334Z" fill="#090E15"/>
<path d="M16.0496 7.66675H13.2642V20.6667H16.0496V7.66675Z" fill="#090E15"/>
<path d="M21.4879 18.2002H13.2642V20.6669H21.4879V18.2002Z" fill="#090E15"/>
</g>
<path d="M42.7082 22.7442C38.8628 22.7442 35.7906 19.8957 35.7906 15.7248C35.7906 11.5539 38.8628 8.70544 42.7082 8.70544C45.1701 8.70544 46.8384 9.86516 47.9168 11.3911L46.4925 12.1846C45.7194 11.0452 44.3155 10.211 42.7082 10.211C39.7987 10.211 37.5403 12.4898 37.5403 15.7248C37.5403 18.9395 39.7987 21.2386 42.7082 21.2386C44.3155 21.2386 45.7194 20.4247 46.4925 19.265L47.9371 20.0585C46.7977 21.6048 45.1701 22.7442 42.7082 22.7442ZM51.6263 22.5H50.1004V8.92924H51.6263V22.5ZM54.1726 17.5763C54.1726 14.7278 56.2072 12.4287 59.015 12.4287C61.9855 12.4287 63.7352 14.7482 63.7352 17.6984V18.0849H55.7799C55.902 19.9364 57.2042 21.4827 59.3201 21.4827C60.4392 21.4827 61.5785 21.0351 62.3517 20.2416L63.0841 21.2386C62.1075 22.2152 60.7851 22.7442 59.1777 22.7442C56.2683 22.7442 54.1726 20.6485 54.1726 17.5763ZM58.9946 13.6902C56.899 13.6902 55.8613 15.4603 55.7799 16.9659H62.2296C62.2093 15.501 61.2327 13.6902 58.9946 13.6902ZM73.9493 22.5H72.4233V21.381C71.6095 22.2762 70.4904 22.7442 69.168 22.7442C67.4996 22.7442 65.7295 21.6251 65.7295 19.4888C65.7295 17.2914 67.4996 16.2538 69.168 16.2538C70.5108 16.2538 71.6298 16.6811 72.4233 17.5966V15.8265C72.4233 14.504 71.3653 13.7512 69.9411 13.7512C68.761 13.7512 67.8048 14.1785 66.9299 15.1144L66.2178 14.0564C67.2758 12.9577 68.5372 12.4287 70.1446 12.4287C72.2199 12.4287 73.9493 13.3647 73.9493 15.7451V22.5ZM72.4233 20.4247V18.5732C71.8333 17.7594 70.7956 17.3525 69.7173 17.3525C68.2931 17.3525 67.2961 18.2477 67.2961 19.5091C67.2961 20.7502 68.2931 21.6455 69.7173 21.6455C70.7956 21.6455 71.8333 21.2386 72.4233 20.4247ZM85.2389 22.5H83.713V16.0707C83.713 14.3413 82.8381 13.7919 81.5156 13.7919C80.3152 13.7919 79.1758 14.5244 78.6062 15.3179V22.5H77.0802V12.6729H78.6062V14.0971C79.2979 13.2833 80.6407 12.4287 82.1057 12.4287C84.1606 12.4287 85.2389 13.4664 85.2389 15.6027V22.5ZM89.8844 22.5H88.3584V8.92924H89.8844V22.5ZM100.671 22.5H99.1449V21.381C98.331 22.2762 97.212 22.7442 95.8895 22.7442C94.2211 22.7442 92.451 21.6251 92.451 19.4888C92.451 17.2914 94.2211 16.2538 95.8895 16.2538C97.2323 16.2538 98.3514 16.6811 99.1449 17.5966V15.8265C99.1449 14.504 98.0869 13.7512 96.6627 13.7512C95.4826 13.7512 94.5263 14.1785 93.6515 15.1144L92.9394 14.0564C93.9973 12.9577 95.2588 12.4287 96.8661 12.4287C98.9414 12.4287 100.671 13.3647 100.671 15.7451V22.5ZM99.1449 20.4247V18.5732C98.5548 17.7594 97.5172 17.3525 96.4389 17.3525C95.0146 17.3525 94.0177 18.2477 94.0177 19.5091C94.0177 20.7502 95.0146 21.6455 96.4389 21.6455C97.5172 21.6455 98.5548 21.2386 99.1449 20.4247ZM105.328 22.5H103.802V8.92924H105.328V14.1582C106.121 13.0798 107.301 12.4287 108.644 12.4287C111.208 12.4287 113.018 14.4633 113.018 17.5966C113.018 20.7909 111.208 22.7442 108.644 22.7442C107.261 22.7442 106.06 22.032 105.328 21.0351V22.5ZM105.328 15.3789V19.8347C105.857 20.6892 107.057 21.381 108.258 21.381C110.251 21.381 111.431 19.7736 111.431 17.5966C111.431 15.4196 110.251 13.7919 108.258 13.7919C107.057 13.7919 105.857 14.5244 105.328 15.3789Z" fill="#090E15"/>
<defs>
<clipPath id="clip0_772_8752">
<rect width="29.2473" height="32" fill="white"/>
</clipPath>
</defs>
</svg>
