<svg width="84" height="12" viewBox="0 0 84 12" fill="none" xmlns="http://www.w3.org/2000/svg">
<g clip-path="url(#clip0_750_2978)">
<mask id="mask0_750_2978" style="mask-type:luminance" maskUnits="userSpaceOnUse" x="0" y="0" width="84" height="12">
<path d="M84 0H0V12H84V0Z" fill="white"/>
</mask>
<g mask="url(#mask0_750_2978)">
<path fill-rule="evenodd" clip-rule="evenodd" d="M58.3817 0.913445H60.0677V9.55131H67.3772L66.3038 11.2388H58.3817V0.913445ZM45.1429 11.2388L38.9068 1.39903C38.5235 0.760298 37.5014 0.760299 37.0667 1.42471L30.882 11.2388H32.9266L34.7924 8.27384H38.7793L39.8275 6.58689H35.8406L38.0131 3.18824L43.0992 11.2388H45.1429ZM48.9375 0.916712C46.0884 0.916712 44.2128 3.22653 44.2128 6.07609C44.2128 8.92518 46.0888 11.236 48.9375 11.236L55.8655 11.2276L56.9497 9.55504H48.9884C47.0679 9.55504 45.9441 7.99743 45.9441 6.07609C45.9441 4.15475 47.0675 2.59713 48.9884 2.59713H56.0803L57.1271 0.911578L48.9375 0.916712ZM5.69585 2.59713H13.0049C14.9262 2.59713 16.0496 4.15475 16.0496 6.07609C16.0496 7.99743 14.9267 9.55504 13.0049 9.55504H5.69585C3.77451 9.55504 2.65158 7.99743 2.65158 6.07609C2.65158 4.15475 3.77451 2.59713 5.69585 2.59713ZM5.69585 0.916712C2.84629 0.916712 0.970703 3.22653 0.970703 6.07609C0.970703 8.92518 2.84629 11.236 5.69585 11.236H13.0049C15.8544 11.236 17.73 8.92518 17.73 6.07609C17.73 3.22653 15.8544 0.916712 13.0049 0.916712H5.69585ZM69.179 6.89412C69.4536 8.42092 70.5041 9.55504 72.1439 9.55504H80.1052L79.0201 11.2276L72.093 11.236C69.243 11.236 67.3683 8.92518 67.3683 6.07609C67.3683 3.22653 69.2434 0.916712 72.093 0.916712L80.2822 0.912045L79.2363 2.5976H72.1444C70.5274 2.5976 69.4722 3.71258 69.1795 5.20763H79.1854L78.112 6.89458L69.179 6.89412ZM27.2658 7.04353C28.069 7.0295 28.8345 6.70059 29.3976 6.12761C29.9606 5.55464 30.2761 4.78345 30.2761 3.98012C30.2761 3.1768 29.9606 2.4056 29.3976 1.83263C28.8345 1.25965 28.069 0.930736 27.2658 0.916712L18.6657 0.912978V11.2383H20.5572V2.5976H27.2658C27.6324 2.5976 27.9841 2.74326 28.2434 3.00253C28.5026 3.2618 28.6483 3.61345 28.6483 3.98012C28.6483 4.34679 28.5026 4.69844 28.2434 4.95771C27.9841 5.21699 27.6324 5.36265 27.2658 5.36265H21.886L27.9549 11.2266H30.3964L26.0518 7.04726L27.2658 7.04353ZM82.049 0.922782C82.4874 0.922782 82.8343 1.26923 82.8343 1.72867C82.8343 2.19559 82.4878 2.53923 82.049 2.53923C81.6049 2.53923 81.2594 2.19559 81.2594 1.72867C81.2594 1.26923 81.6049 0.922782 82.049 0.922782V0.76123C81.5153 0.76123 81.0642 1.17165 81.0642 1.7282C81.0642 2.29037 81.5157 2.70078 82.049 2.70078C82.578 2.70078 83.0295 2.29037 83.0295 1.7282C83.0295 1.17165 82.578 0.76123 82.049 0.76123V0.922782Z" fill="#090E15"/>
<path fill-rule="evenodd" clip-rule="evenodd" d="M81.844 1.31548H82.0756C82.1933 1.31548 82.3189 1.34116 82.3189 1.47983C82.3189 1.65166 82.1904 1.6624 82.0462 1.6624H81.8435V1.80621H82.0387L82.3343 2.29133H82.5238L82.2054 1.79873C82.3697 1.77819 82.4953 1.69135 82.4953 1.49104C82.4953 1.27019 82.3641 1.17261 82.1003 1.17261H81.6736V2.29133H81.8431L81.844 1.31548Z" fill="#090E15"/>
</g>
</g>
<defs>
<clipPath id="clip0_750_2978">
<rect width="84" height="12" fill="white"/>
</clipPath>
</defs>
</svg>
